<?xml version="1.0" encoding="UTF-8"?>
<svg width="67px" height="49px" viewBox="0 0 67 49" version="1.1" xmlns="http://www.w3.org/2000/svg" xmlns:xlink="http://www.w3.org/1999/xlink">
    <!-- Generator: Sketch 49 (51002) - http://www.bohemiancoding.com/sketch -->
    <title>Curfan_logo</title>
    <desc>Created with Sketch.</desc>
    <defs></defs>
    <g id="Page-1" stroke="none" stroke-width="1" fill="none" fill-rule="evenodd">
        <g id="Apple-TV-Copy-3" transform="translate(-280.000000, -22.000000)" fill="#748387" fill-rule="nonzero">
            <g id="Curfan_logo" transform="translate(280.000000, 22.000000)">
                <path d="M49,0 L0,0 L0,49 L49,49 L48.9999991,36.2513501 C44.8393459,43.8485289 36.7697389,49 27.4969414,49 C13.9659652,49 2.99694184,38.0309764 2.99694184,24.5 C2.99694184,10.9690236 13.9659652,0 27.4969414,0 C36.7697389,0 44.8393459,5.15147112 49,12.748651 L49,0 Z" id="Combined-Shape"></path>
                <path d="M38.134,21.694 L38.134,27.436 C38.134,29.974 39.268,31.252 41.536,31.252 C42.868,31.252 43.912,30.64 44.632,29.434 L44.632,31 L45.712,31 L45.712,21.694 L44.632,21.694 L44.632,27.346 C44.56,28.228 44.254,28.948 43.714,29.488 C43.174,30.028 42.544,30.316 41.824,30.316 C40.924,30.316 40.258,30.064 39.826,29.56 C39.412,29.074 39.214,28.354 39.214,27.382 L39.214,21.694 L38.134,21.694 Z M52.886,21.442 C52.202,21.442 51.59,21.658 51.086,22.09 C50.654,22.432 50.312,22.9 50.06,23.476 L50.06,21.694 L48.98,21.694 L48.98,31 L50.06,31 L50.06,26.086 C50.06,25.15 50.294,24.34 50.798,23.656 C51.302,22.9 51.986,22.54 52.814,22.54 C53.282,22.54 53.75,22.594 54.236,22.738 L54.236,21.64 C53.876,21.496 53.426,21.442 52.886,21.442 Z M60.24,18.148 C59.448,18.148 58.872,18.364 58.476,18.814 C58.08,19.228 57.9,19.822 57.9,20.596 L57.9,21.694 L55.416,21.694 L55.416,22.63 L57.9,22.63 L57.9,31 L58.98,31 L58.98,22.63 L61.77,22.63 L61.77,21.694 L58.98,21.694 L58.98,20.614 C58.98,20.074 59.088,19.696 59.304,19.462 C59.52,19.21 59.862,19.102 60.33,19.102 L61.896,19.102 L61.896,18.148 L60.24,18.148 Z M68.062,21.442 C69.358,21.442 70.33,21.784 70.96,22.504 C71.5,23.098 71.788,23.926 71.788,25.006 L71.788,31 L70.762,31 L70.762,29.218 C70.384,29.758 69.88,30.226 69.268,30.586 C68.512,31.018 67.702,31.252 66.82,31.252 C65.92,31.252 65.182,31.018 64.642,30.568 C64.048,30.1 63.76,29.47 63.76,28.714 C63.76,27.634 64.192,26.842 65.074,26.338 C65.83,25.852 66.928,25.6 68.332,25.6 L70.708,25.564 L70.708,25.006 C70.708,23.242 69.808,22.36 68.008,22.36 C67.252,22.36 66.64,22.504 66.154,22.828 C65.614,23.17 65.272,23.656 65.128,24.304 L64.066,24.232 C64.246,23.296 64.714,22.576 65.47,22.108 C66.136,21.658 67,21.442 68.062,21.442 Z M70.708,26.41 L68.386,26.446 C66.028,26.464 64.858,27.22 64.858,28.696 C64.858,29.2 65.056,29.596 65.452,29.902 C65.848,30.208 66.388,30.37 67.036,30.37 C67.972,30.37 68.836,30.046 69.592,29.398 C70.33,28.786 70.708,28.102 70.708,27.382 L70.708,26.41 Z M79.16,21.442 C78.512,21.442 77.918,21.586 77.396,21.91 C76.874,22.234 76.46,22.666 76.136,23.224 L76.136,21.694 L75.056,21.694 L75.056,31 L76.136,31 L76.136,25.384 C76.19,24.466 76.478,23.728 77.018,23.188 C77.522,22.648 78.134,22.378 78.89,22.378 C80.654,22.378 81.536,23.368 81.536,25.348 L81.536,31 L82.616,31 L82.616,25.276 C82.616,22.72 81.464,21.442 79.16,21.442 Z" id="urfan" transform="translate(60.375000, 24.700000) rotate(90.000000) translate(-60.375000, -24.700000) "></path>
            </g>
        </g>
    </g>
</svg>